Coordinates
version=1
nRows=6
nColumns=43
inDegrees=yes

Units are S.I. units (second, meters, Newtons, ...)
If the header above contains a line with 'inDegrees', this indicates whether rotational values are in degrees (yes) or radians (no).

endheader
time	pelvis_tilt	pelvis_list	pelvis_rotation	pelvis_tx	pelvis_ty	pelvis_tz	hip_flexion_r	hip_adduction_r	hip_rotation_r	knee_angle_r	knee_angle_r_beta	socket_rotation_r	socket_piston_r	SP_rotation_r	ankle_angle_r	ankle_evert_r	ankle_ext_rot_r	hip_flexion_l	hip_adduction_l	hip_rotation_l	knee_angle_l	knee_angle_l_beta	ankle_angle_l	subtalar_angle_l	mtp_angle_l	lumbar_extension	lumbar_bending	lumbar_rotation	arm_flex_r	arm_add_r	arm_rot_r	elbow_flex_r	pro_sup_r	wrist_flex_r	wrist_dev_r	arm_flex_l	arm_add_l	arm_rot_l	elbow_flex_l	pro_sup_l	wrist_flex_l	wrist_dev_l
      0.00000000	      6.42337422	      3.00806579	     -1.34099796	      1.06927280	      1.00305868	      0.05246626	     -7.22412450	     -1.39989581	      5.75532376	     12.26768287	      0.21411146	      0.00000000	      0.00000000	      0.00000000	     14.18183120	      0.00000000	      9.99997443	     13.92024578	     -6.33614952	    -13.45552454	     29.90461955	      0.52193407	     -2.42574001	      0.00000000	      0.00000000	    -15.57208980	     -2.93120540	      9.96465100	     10.21031420	    -20.76283916	      7.87412297	     38.06187622	    133.84813488	      0.00000000	      0.00000000	    -14.31416077	    -12.70710175	    -17.12875802	     33.39738471	    135.71904601	      0.00000000	      0.00000000
      0.00800000	      6.60220009	      3.11296777	     -1.53086185	      1.06920970	      1.00281533	      0.05207161	     -8.13448121	     -1.61105408	      6.35194963	     11.79585453	      0.20587650	      0.00000000	      0.00000000	     -0.00000000	     14.34167422	      0.00000000	      9.99997443	     13.40732970	     -5.92806144	    -14.23180435	     26.74589579	      0.46680394	     -3.17295175	      0.00000000	      0.00000000	    -15.70600473	     -3.09955106	     10.35334457	     10.46787912	    -20.95227682	      8.01967892	     37.87130043	    132.41274499	      0.00000000	      0.00000000	    -14.55544402	    -12.44999912	    -17.54412647	     33.15970599	    136.09400826	      0.00000000	      0.00000000
      0.01700000	      6.02174509	      2.47309543	     -1.58743071	      1.06876249	      1.00059709	      0.05159990	     -7.95910651	     -0.95799005	      5.84012981	     11.92903436	      0.20820093	      0.00000000	      0.00000000	     -0.00000000	     14.61771640	      0.00000000	      9.99997443	     14.03148177	     -6.30905290	    -13.86053670	     24.48951114	      0.42742260	     -2.81707296	      0.00000000	      0.00000000	    -15.01871386	     -2.41146378	     10.64950607	     10.56465366	    -21.22600423	      8.16018791	     38.27591043	    132.40045240	      0.00000000	      0.00000000	    -15.08142871	    -12.09339028	    -17.69568464	     33.15111856	    136.12760743	      0.00000000	      0.00000000
      0.02500000	      5.15513483	      2.37968308	     -1.11339323	      1.06759851	      0.99905095	      0.04998413	     -7.60556231	     -0.88740596	      5.89618302	     11.71088442	      0.20439349	      0.00000000	      0.00000000	     -0.00000000	     14.93498991	      0.00000000	      9.99997443	     14.74795570	     -5.92431309	    -13.80335490	     21.46609479	      0.37465403	     -3.17193229	      0.00000000	      0.00000000	    -14.18885632	     -2.14201573	     10.49383403	     10.95019129	    -21.69023353	      9.07317618	     38.29973745	    132.54419163	      0.00000000	      0.00000000	    -15.17634915	    -11.72520174	    -18.08996700	     32.71290535	    136.21727850	      0.00000000	      0.00000000
      0.03300000	      4.69425874	      2.29320422	     -1.03811027	      1.06827437	      0.99771466	      0.04918091	     -7.61657944	     -0.85124368	      5.60853863	     11.79155170	      0.20580140	      0.00000000	      0.00000000	      0.00000000	     15.44780887	      0.00000000	      9.99997443	     15.02546992	     -5.58875318	    -13.88325027	     18.36119957	      0.32046339	     -3.95364016	      0.00000000	      0.00000000	    -13.49013488	     -2.03728390	     10.65641632	     10.58113855	    -21.77913289	      9.09854034	     38.41505436	    132.56584339	      0.00000000	      0.00000000	    -15.61033606	    -11.50964028	    -18.38773904	     32.55848001	    136.32500989	      0.00000000	      0.00000000
      0.04200000	      4.51401999	      2.03160688	     -0.77897562	      1.06724658	      0.99615008	      0.04798431	     -8.02538712	     -0.62157582	      5.54266059	     11.46796892	      0.20015382	      0.00000000	      0.00000000	     -0.00000000	     15.78227563	      0.00000000	      9.99997443	     15.13702017	     -5.32517765	    -12.86824749	     15.59142241	      0.27212166	     -4.11084573	      0.00000000	      0.00000000	    -13.38984007	     -1.75536269	     10.48908157	     10.63407418	    -22.01567068	      9.33779482	     38.71020788	    132.58085624	      0.00000000	      0.00000000	    -15.91703233	    -11.15076554	    -18.77812054	     32.66967002	    136.43807159	      0.00000000	      0.00000000
